<?xml version="1.0" encoding="UTF-8" standalone="no"?>
<!-- Created with Inkscape (http://www.inkscape.org/) -->

<svg
   xmlns:dc="http://purl.org/dc/elements/1.1/"
   xmlns:cc="http://creativecommons.org/ns#"
   xmlns:rdf="http://www.w3.org/1999/02/22-rdf-syntax-ns#"
   xmlns:svg="http://www.w3.org/2000/svg"
   xmlns="http://www.w3.org/2000/svg"
   xmlns:sodipodi="http://sodipodi.sourceforge.net/DTD/sodipodi-0.dtd"
   xmlns:inkscape="http://www.inkscape.org/namespaces/inkscape"
   id="svg2985"
   version="1.1"
   inkscape:version="0.48.2 r9819"
   width="297"
   height="298"
   sodipodi:docname="CPUSA logo.svg">
  <metadata
     id="metadata2991">
    <rdf:RDF>
      <cc:Work
         rdf:about="">
        <dc:format>image/svg+xml</dc:format>
        <dc:type
           rdf:resource="http://purl.org/dc/dcmitype/StillImage" />
        <dc:title></dc:title>
      </cc:Work>
    </rdf:RDF>
  </metadata>
  <defs
     id="defs2989" />
  <sodipodi:namedview
     pagecolor="#ffffff"
     bordercolor="#666666"
     borderopacity="1"
     objecttolerance="10"
     gridtolerance="10"
     guidetolerance="10"
     inkscape:pageopacity="0"
     inkscape:pageshadow="2"
     inkscape:window-width="1366"
     inkscape:window-height="706"
     id="namedview2987"
     showgrid="false"
     inkscape:zoom="1.1746678"
     inkscape:cx="148.5"
     inkscape:cy="149"
     inkscape:window-x="-8"
     inkscape:window-y="-8"
     inkscape:window-maximized="1"
     inkscape:current-layer="g2995" />
  <g
     id="g2995">
    <path
       style="fill:#d30606"
       d="m 124.52864,296.89653 c -4.46613,-0.69797 -8.62957,-1.5831 -9.25212,-1.96695 -0.67252,-0.41463 -1.16377,-3.81923 -1.21042,-8.38876 -0.0432,-4.22999 -0.41448,-8.54435 -0.82504,-9.58743 -0.49882,-1.26732 -3.87805,-2.99409 -10.18529,-5.20468 -5.191325,-1.81949 -9.911539,-3.32313 -10.48937,-3.34146 -0.577827,-0.0183 -3.638623,3.1195 -6.801748,6.97292 -3.163147,3.85339 -6.287032,6.99762 -6.941986,6.98717 -3.688291,-0.0587 -30.643368,-19.22547 -30.690605,-21.82294 -0.01375,-0.75679 1.853422,-4.86276 4.149299,-9.12436 l 4.174325,-7.74834 -7.81831,-9.12171 c -4.300073,-5.01696 -8.097618,-9.12144 -8.438987,-9.12107 -0.341361,4.2e-4 -4.124061,1.17156 -8.405988,2.60268 -4.28193,1.4311 -8.406869,2.36426 -9.166537,2.07368 -0.759667,-0.29057 -2.967332,-3.36787 -4.905925,-6.83842 -3.40791,-6.10099 -10.6761111,-23.09922 -10.6781187,-24.97305 -5.397e-4,-0.50557 3.6328037,-3.23761 8.0740997,-6.07118 7.25979,-4.63179 8.021428,-5.41054 7.543627,-7.71316 -0.292305,-1.40869 -1.082306,-6.16063 -1.755557,-10.55991 -0.673255,-4.3993 -1.617746,-8.51456 -2.098872,-9.14505 -0.481126,-0.63049 -4.909101,-2.1386 -9.8399467,-3.35137 L 0,159.24811 l 0.0106749,-7.1381 c 0.0106738,-7.137 2.2520037,-25.647 3.5008734,-28.91197 0.5626494,-1.47096 2.0744594,-1.73212 10.0764137,-1.74068 8.834994,-0.009 9.46861,-0.14863 10.294486,-2.26102 0.484021,-1.23802 2.301366,-5.85247 4.038543,-10.25434 1.737177,-4.40186 3.238396,-8.63099 3.336049,-9.398062 0.09764,-0.767065 -2.750124,-3.882932 -6.328388,-6.924138 -3.578253,-3.041214 -6.627975,-6.010434 -6.777165,-6.598259 -0.691243,-2.723865 18.286918,-29.588692 20.904365,-29.591495 1.096525,-0.0012 39.873529,36.845595 39.874651,37.889773 3.68e-4,0.341758 -1.847814,3.086241 -4.107061,6.098861 -19.046599,25.39792 -22.67779,60.75591 -9.224665,89.8233 8.899512,19.22865 25.587801,35.51861 44.981493,43.90787 20.42316,10.24687 48.51595,10.40374 69.85141,1.12882 1.85689,-0.002 38.19144,38.83773 38.19358,40.8269 0.002,2.05144 -21.86375,13.14387 -27.2434,13.82036 l -3.74132,0.47047 -4.47066,-8.12947 -4.47065,-8.12947 -3.53733,0.68485 c -1.94553,0.37668 -6.82774,1.26765 -10.84937,1.97994 -4.02164,0.71227 -7.47715,1.4605 -7.67891,1.6627 -0.20177,0.2022 -1.43299,4.63748 -2.73603,9.85616 l -2.36917,9.48853 -9.4398,0.17793 c -5.19189,0.0979 -13.09388,-0.39315 -17.56,-1.09112 z m 14.66699,-128.33129 -26.67599,26.78618 -40.523181,-39.43944 78.014381,-78.498147 54.05723,24.295597 -31.24989,33.06851 c 0,0 33.52258,32.27637 52.34818,50.95285 l 2.38034,-2.7528 c 3.30835,-3.82598 9.04523,-13.82468 12.07593,-21.04696 20.05528,-47.7923 -3.23444,-104.077676 -53.85478,-130.153418 -25.92057,-13.352301 -54.6217,-17.192705 -85.07488,-11.383581 -9.853416,1.879596 -9.351672,0.47387 1.90264,-5.330544 19.65087,-10.1349258 35.96718,-14.15619711 57.73479,-14.22915651 16.74418,-0.056127 23.80655,1.01917141 39.50647,6.01513481 21.34035,6.7908367 37.75964,17.0738327 55.60183,34.8220947 22.41543,22.297425 35.36104,46.518533 40.07837,74.98625 2.6705,42.20218 -3.90989,70.00745 -27.4444,110.31036 l 27.66499,27.61825 -35.10804,35.56422 z"
       id="path2997"
       inkscape:connector-curvature="0"
       sodipodi:nodetypes="csssscscsscssssssssssscssssssscscssccsscccsscscscccccccccssssssssccccc" />
  </g>
</svg>
